<svg width="170" height="171" viewBox="0 0 170 171" fill="none" xmlns="http://www.w3.org/2000/svg">
<path d="M19.478 139.742C22.5807 131.387 24.4999 126.772 29.3212 119.092C33.8054 111.763 37.0806 106.557 41.1572 101.129C45.5237 95.3155 50.2883 89.7626 54.9135 84.1536C60.2286 77.708 64.8041 72.7228 70.522 67.1511C76.5846 61.2436 83.0286 55.8073 89.5053 50.3673C100.343 41.2647 109.277 34.2523 122.41 26.3893C126.217 24.1096 130.039 21.95 134.222 20.4328C138.197 18.9909 141.837 18.3647 147.158 18.1042C151.028 18.287 153.554 18.5836 155.339 20.2259C157.9 22.5809 157.9 26.4399 157.9 29.659V29.6777H169.791C169.983 27.5851 170.027 25.4778 169.986 23.3375C169.961 22.0595 169.901 20.7032 169.798 19.0943C169.499 15.7684 169.153 13.9079 167.97 10.6079C166.65 8.11654 165.786 6.79298 163.61 4.80893C161.339 3.15235 159.946 2.38637 157.283 1.27295C154.464 0.349613 152.816 0.148721 149.83 0C145.127 0.0923364 142.823 0.465422 138.862 1.27295C131.111 3.25459 126.993 4.89136 119.879 8.34491C116.577 9.89414 113.919 11.2096 111.442 12.5315C104.552 16.2076 97.8541 20.4199 91.3333 24.7231C88.3356 26.7013 85.6048 28.6478 82.7557 30.8705C77.2506 35.1653 72.1467 39.9127 67.0066 44.6333L61.6631 49.5406L44.9297 66.1936C37.6176 74.2557 33.9616 79.0646 27.3526 87.8338L19.6933 99.7147C16.61 104.498 13.5036 109.261 10.8115 114.283C8.92197 117.808 7.30566 121.287 5.27566 126.022C2.89018 131.829 1.93575 135.264 0.635294 141.581C-0.286154 147.546 -0.133964 150.89 0.635294 156.856C1.92618 160.374 2.82337 162.242 5.27566 165.06C7.81684 167.175 9.35502 168.16 12.4471 169.303C15.7167 170.554 17.8187 170.951 22.1497 171H26.805V159.119C25.2546 158.991 24.1741 158.828 22.9253 157.784C21.3702 156.484 20.391 155.27 19.478 152.754C18.0023 147.5 18.2484 144.68 19.478 139.742Z" fill="#FFE02F"/>
</svg>
